
  <svg
    xmlns="http://www.w3.org/2000/svg"
    viewBox="0 0 641.92 778.38"
    height="200"
    width="170"
  >
    <linearGradient
      gradientTransform="matrix(.99903293 .04396812 -.04396812 .99903293 -157.219834 -176.880008)"
      gradientUnits="userSpaceOnUse"
      x1="378.58"
      x2="403.48"
      y1="463.39"
      y2="178.75"
    >
      <stop offset=".52" stopColor="#2b3593" />
      <stop offset=".53" stopColor="#00adee" />
    </linearGradient>
    <linearGradient
      gradientUnits="userSpaceOnUse"
      x1="496.22"
      x2="539.65"
      y1="427.71"
      y2="308.39"
    >
      <stop offset=".02" stopColor="#fff238" stopOpacity="0" />
      <stop offset=".07" stopColor="#fff235" stopOpacity=".05" />
      <stop offset=".17" stopColor="#fff22d" stopOpacity=".2" />
      <stop offset=".3" stopColor="#fff220" stopOpacity=".43" />
      <stop offset=".46" stopColor="#fff10e" stopOpacity=".75" />
      <stop offset=".58" stopColor="#fff100" />
      <stop offset="1" stopColor="#fff100" />
    </linearGradient>
    <path
      d="m208.02 701.98-175.28-92.58 20.79-5.39 57.41 27.86-5.39-176.17 21.57 13.48 3.6 170.78 78.2 44.94z"
      fill="#1b75bb"
      stroke="#1b75bb"
      strokeMiterlimit="10"
      strokeWidth="1.1"
    />
    <g transform="translate(-186.52 -151.28)">
      <path
        d="m557.88 573.72 67.24 35s3.57-47.57-6.32-83.52l-26.63 19.54-10.12 3.26s-41.27 29.4-81.45 40.1l-79.1 45.84s-19.77 16.18-55.72-1.8l-179.26-107.14.44 23.52 176.12 98.94s27.86 18 65.62.89z"
        fill="#4b3b95"
      />
      <path
        d="m189.64 523 342-171.33c.28-.14 8.87-4.84 9.44-5.09 6.74-3 21.65-16.29 40.75-3l22 13.11s4.93 2.74 18.47 13.54c.64.5.31 1.56.86 2.15 3.43 3.66 16.8 16.67 31.51 14.34 0 0 15.61-4.1 16.2 16.74a3.9 3.9 0 0 1 -2.68 3.86c-8.3 2.66-34.11 11.57-50.22 24.23a3.22 3.22 0 0 0 -.28.24c-2.43 2.22-37.16 34.17-47.31 46.62a3.82 3.82 0 0 1 -5 .81l-16.14-10.09a3.85 3.85 0 0 1 -1.74-4c1.29-6.47 1.57-23.06-30-21.75a4.06 4.06 0 0 0 -.69.08c-3.74.8-38.21 8.41-20.34 15.21 0 0 32-.89 57.11 42.44a3.81 3.81 0 0 0 1 1.09c1.42 1.09 4.79 4.3-1.48 6.53a4 4 0 0 0 -1.48.88l-36.62 35.65a3.88 3.88 0 0 1 -5.05.31l-45.46-34.72a3.91 3.91 0 0 1 -1.49-2.54c-.89-6-6.64-27.48-43-29 0 0-18 1.79-2.69 13.48 0 0 32 24 42.07 49a3.43 3.43 0 0 0 .45.79c2.73 3.61 24.79 32.62 36.9 42.4a3.85 3.85 0 0 1 -.52 6.32l-73.51 42.6s-21.51 15.23-55.58-1.73l-.28-.15-177.41-102.23a3.87 3.87 0 0 1 .21-6.79z"
        fill="#1b75bb"
        stroke="#1b75bb"
        strokeMiterlimit="10"
        strokeWidth="1.1"
      />
      <path
        d="m597.68 251.93s17.08 4.5 57.52-18c0 0 53.93-18.88 75.51 29.66 0 0 1.79 27 0 40.45 0 0-1.1 29.66.8 37.75 0 0-3.88 28.25-12 27.35 0 0-52.65 33.6-65.24-19.26 0 0 15.28-31.46-8.08-29.66 0 0 4.49-34.16-36.86-32.36.03.03-20.64-17.05-11.65-35.93z"
        fill="#996733"
      />
      <path
        d="m595.41 759.78s-5 7.19 0 20.67c0 0 2.27 11.69 30.13 9 0 0 2.72 16.18-16.16 18 0 0-44.06-18.88-54.85-34.16 0 0-6.34-21.57 13.91-17.08zm-124.03 89.9c-4.1 1.84-18.95 5.76-60.3-24.8 0 0-38.57-25.54-2.62-25.54h45.84s-3.08 16.52 0 20.67c0 0 7.19 16.18 30.56 7.2 0 0 4.5 14.38-13.48 22.47z"
        fill="#4b3b95"
      />
      <path
        d="m630.93 773.26s1.72 17.47-5.46 17.87c0 0-40.71 6.66-31.25-30.19l-.22-11.94z"
        fill="#72499c"
      />
      <path
        d="m786.43 442.49 26.07-13.49s19.78-9.89 15.28 21.57l-33.26 230.1-21.52 12.6 27.75 155.5s.12 18.87-18.76 4.49l-36.85-141.4-74.51 43.71-24.41 174.09-20.54-3.59 5.25-152.81-76.4-44.94-41.34 137.37s-17.08 30.71-19.78-.75l35.06-152.8-5.4-3.59s-3.59-47.64 14.39-51.24c0 0 72.8 56.63 108.76 56.63l18.87-150.11s10.79-62 37.75-70.11z"
        fill="#4b3b95"
      />
      <path
        d="m495.29 609.42 61.71-36.42 68.67 33.66s-2.93 18.85-8.22 43.09c0 0-.49 28.4 31 49.08l-2.1 15.61s-35.54 1.62-108.35-55.91c0 0-9.63 0-13.44 21.05l-1.41 29.48s-16.58 86.48-31.86 109.85c0 0 2.7 2.7-9.89 11.69 0 0-21.82 8.76-30.56-7.19 0 0-3.62-4.73-1-21.41 7.33-46.11 18.08-156 45.45-192.58z"
        fill="#75489c"
      />
    </g>
    <path
      d="m126.34 465.81 12.81 5.73 2.02 161.46 81.74 44.15-1.52 22.08-12.81 3.88 1.24-17.31-78.43-45.05-4.27-171.57m-16.57 150.73-43.48-20.23-13.82 3.37 57.3 27.98z"
      fill="#4b3b95"
    />
    <path
      d="m719 388.56v-22.47s-9.89 15.28-41.35 11.23c0 0-13.48.45-23.37-27.41 0 0 17.08-34.16-8.08-29.66 0 0 7.19-38.65-36.86-32.36 0 0-4.49 9.89 7.19 35.95 0 0-9.88 16.18-2.69 22.47l12.58 36s0 7.19 23.37 6.29c0 0 11.9-13.79 18.09 19.47 0 0 6.18 21.88 33.14 8.39-.02-.04 17.98-5.46 17.98-27.9z"
      fill="#cb9866"
      stroke="#cb9866"
      strokeMiterlimit="10"
      strokeWidth=".55"
      transform="translate(-186.52 -151.28)"
    />
    <path
      d="m554.53 506.31s11.16 34.82 34.67 40.69c0 0 4.88.7 27.35-18.62 0 0 13.18 72.14 3.78 103.27 0 0-17.25 35.38 28.21 67.85l16.55-135.62s10.79-60.22 37.75-70.11l83.59-51.23s7.65-71.23-67-54.16c0 0-.45 23.6-18.43 28.09s-29.27 5.36-33.86-9c0 0-59.62 18-83 56.66.06-.07-27.81 24.2-29.61 42.18z"
      fill="#00adee"
      transform="translate(-186.52 -151.28)"
    />
    <path
      d="m525.18 154.31-12.65-3-217.47 115s-15.14 6.69-14.15 21.59l-6.91 156.84s-4.14 9.71 6.82 13.5l7.45-169.19s.94-11.92 14.05-19.17l216.09-111.74s1.33-2.01 6.77-3.83z"
      fill="#77cedf"
      transform="translate(-186.52 -151.28)"
    />
    <path
      d="m299.93 455.37 69.61-35.3.45 17.76s-1.52 6.53 5 8.47l10.77 8.31s4 3.47 18.64-1.66l41.85-23.31s10.53-4.9-.78-10.35l-13.15-10.47 1.41-22.63 79-41.89s8.84-4.14 10-21.41l6.62-159.74s2.81-7.71-6.65-8.13l-222.49 115.98s-12.31 8.12-12.16 23.39l-5.91 162.23s-2.72 5.66 9.31 4.13z"
      fill="#4b3b95"
      transform="translate(-186.52 -151.28)"
    />
    <path
      d="m109.88 290.74 212.32-110.67 7.64-154.74-212.79 111.88z"
      fill="url(#a)"
    />
    <path
      d="m434.78 228.46a3.28 3.28 0 0 1 0 .62v.31c-.38 3.12-2.78 6-6.67 8.37-.16.07-.27.19-.43.27a46.12 46.12 0 0 1 -14.39 5 13.38 13.38 0 0 1 -1.77.31c-1.2.18-2.5.32-3.83.45a76.85 76.85 0 0 1 -8.17.48c-1 0-1.93 0-2.89-.08a10.79 10.79 0 0 1 -1.08 0 60.93 60.93 0 0 1 -20.17-4.16.3.3 0 0 1 -.16-.08c-5.55-2.32-9.41-5.48-10.61-9a7.24 7.24 0 0 1 -.42-2.39c0-8.1 13.73-14.81 31.36-15.66l.46 15.62c6.83 1.27 5.56-1 5.56-1l-.5-14.66c18.74.21 33.71 7.15 33.71 15.6z"
      fill="#3663ad"
      stroke="#1b75bb"
      strokeMiterlimit="10"
      strokeWidth="1.1"
    />
    <path
      d="m550.75 381.63.31 7.68s4.33 12.69 31.54 12.69c0 0 27.36.5 37.88-10.21l.79-11.49s-1.68 15.34-37.07 15.09c0 .04-25.11 1.12-33.45-13.76zm31.7-1.93-.45-15.62-2.28-75.34s.37-18.75-21.51-14.08l-5.52-3s7.67-4.18 10.64-3.34c0 0 19-2.43 21.84 20.14l2.34 75.54.5 14.66s1.27 2.34-5.56 1.04z"
      fill="#4b3b95"
      transform="translate(-186.52 -151.28)"
    />
    <path
      d="m564.88 326.86 8-35.33a11.21 11.21 0 0 0 -5.74-12.41l-16.76-8.66c-5.34-2.8-15.65.76-18.65 6l-21 33.9"
      fill="#1b75bb"
      stroke="#1b75bb"
      strokeMiterlimit="10"
      strokeWidth="1.1"
      transform="translate(-186.52 -151.28)"
    />
    <ellipse
      cx="537.37"
      cy="319.1"
      fill="#00adee"
      rx="12.64"
      ry="28.99"
      stroke="#231f20"
      strokeMiterlimit="10"
      strokeWidth=".51"
      transform="matrix(.28133671 -.95960912 .95960912 .28133671 -106.58434 593.68119)"
    />
    <path
      d="m531.75 305.45a59.8 59.8 0 0 1 16.73 4.74s-12.97-.19-16.73-4.74z"
      fill="#fff100"
      transform="translate(-186.52 -151.28)"
    />
    <path
      d="m511.49 310.56-108.49 83.23 188.6 61.86-26.18-128.84-8.75-12.23s-27.59-9.05-28.34-8.16-16.84 4.14-16.84 4.14z"
      fill="url(#b)"
      fillOpacity=".23"
      transform="translate(-186.52 -151.28)"
    />
    <path
      d="m328.41 499.15 59.42 33.46s9.25 8.29 27.42 0l27-16.65s-14.25-15.02-29.25-22.91c0 0-10.37-10.28-1.66-12 0 0 16.3-8.55 39.92 7.93 0 0 12.16 9.2 11 17.85l61.08-34.67s-8.85-9.23-27.29-12.58c0 0-14.57-3.52 5.39-12.52 0 0 16.44-10 39.57-.08 0 0 5.65 3.17 6.58 9.54l23.67-11.87s7.14-6-5.64-10.9l-49.26-27.27z"
      fill="#7599d0"
      transform="translate(-186.52 -151.28)"
    />
    <path
      d="m328.76 498.86-.35 12.48 63.21 36.09s11.89 7.78 22.85-.29l36-21-8.23-10.14-33.66 18.46s-9 5-17.26-1.08zm133.81 7.35s-1 3.84 7.66 9.48l61.86-35.37-8.75-8.17zm85.02-49.7a17.92 17.92 0 0 1 1.12 9.9l24.86-12.79-.57-11.62z"
      fill="#534299"
      transform="translate(-186.52 -151.28)"
    />
    <path
      d="m319.2 515.75 70.63 42.12s10.13 7.92 21.53 1.58l42.88-24.75-3.81-8.6-39.19 23a20.12 20.12 0 0 1 -17.86-.69l-65-37.05z"
      fill="#3462ad"
      transform="translate(-186.52 -151.28)"
    />
    <path d="m283.7 364.41 7.23 4.8 61.04-33.82-6.24-6.35z" fill="#3462ad" />
    <path
      d="m548.71 466.41 11 7.28 18-9.61s-.16-6.13-4.18-10.46z"
      fill="#3462ad"
      transform="translate(-186.52 -151.28)"
    />
    <path
      d="m337.16 498.81 57.72 31.73s6.14 4.4 10.35-.07l18.74-10 139.9-76.15s6.87-6.06-4.45-10.93l-43.06-21.92s-.94-1-8.91 3z"
      fill="#d0d2d3"
      transform="translate(-186.52 -151.28)"
    />
    <path
      d="m188.2 345.7-10.91 6.18-8.42-5.21 11.38-6.28zm20.72-9.74-12.41 6.73-8.48-5.18 12.92-6.84zm23.08-10.59-12.33 6.68-8.42-5.15 12.83-6.79zm21.17-9.95-12.63 6.93-8.46-5.02 13.15-7.05zm21.32-11.76-12.14 6.62-8.22-4.97 12.64-6.73zm19.4-9.25-12.14 6.62-8.23-4.96 12.64-6.74zm19.35-11.33-12.14 6.63-8.22-4.97 12.64-6.73zm19.03-8.74-11.39 5.89-7.95-5.22 11.86-5.97zm-129.61 79.97-10.91 6.18-8.42-5.21 11.37-6.28zm20.71-9.74-12.4 6.73-8.48-5.18 12.92-6.84zm23.08-10.59-12.32 6.68-8.42-5.15 12.83-6.79zm21.17-9.95-12.62 6.93-8.46-5.02 13.14-7.05zm21.33-10.01-12.14 6.62-8.23-4.96 12.64-6.74zm19.39-11-12.14 6.62-8.22-4.96 12.64-6.74zm19.36-11.32-12.14 6.62-8.23-4.97 12.64-6.73zm19.03-8.75-11.39 5.89-7.95-5.21 11.86-5.98zm-127.21 81.33-10.9 6.18-8.42-5.21 11.37-6.28zm20.72-9.74-12.4 6.73-8.48-5.18 12.92-6.84zm23.08-10.6-12.32 6.69-8.43-5.15 12.84-6.79zm81.25-42.27-12.14 6.62-8.23-4.97 12.64-6.73zm19.02-8.75-11.39 5.89-7.95-5.21 11.87-5.98z"
      fill="#e6e7e8"
      opacity=".85"
    />
    <path
      d="m555.41 507.35-42.06 40.12-51.08-37.65s3.07-17.6-27.73-29.58c0 0-39.92-5.71-21.57 12.81 0 0 42.34 28.59 37.07 35 0 0 38.15 55.63 47.19 58 0 0 4.57 13.76 41.86-10.35l53-30s-25.09.07-36.68-38.35zm13.03-27-20.2-13.59s6.07-24.94-30.78-24.94c0 0-39.44 11.46-21.41 17.75 0 0 23.86-.88 57.81 44.94 0 0 7.14-15.86 14.58-24.16z"
      fill="#cb9866"
      stroke="#cb9866"
      strokeMiterlimit="10"
      strokeWidth=".55"
      transform="translate(-186.52 -151.28)"
    />
    <path
      d="m310.79 311.47-46.43 23.63 7.88 6.57 47.77-24.09z"
      fill="#e6e7e8"
      opacity=".85"
    />
  </svg>

