<svg viewBox="0 0 980 902"><g stroke="none" stroke-width="1" fill="none" fill-rule="evenodd"><g fill="currentColor" fill-rule="nonzero"><g><path d="M242.4,657.9 L498,657.9 C509,675 521.6,690.8 535.7,705.1 L242.4,705.1 L242.4,657.9 Z M242.4,583.2 L463.7,583.2 C459.2,568 456,552.2 454.1,536 L242.4,536 L242.4,583.2 Z M242.4,461.3 L454.7,461.3 C456.9,445.2 460.2,429.3 465,414.1 L242.4,414.1 L242.4,461.3 Z M655.1,777.7 L655.1,819 C655.1,838.7 639,854.8 619.3,854.8 L82.9,854.8 C63.2,854.8 47.2,838.7 47.2,819 L47.2,220.6 L225,72.7 L225,229.7 L131.4,229.7 L131.4,277 L272.2,277 L272.2,47.3 L619.4,47.3 C639.1,47.3 655.2,63.4 655.2,83.1 L655.2,224.3 C670.4,219.6 686.2,216.3 702.4,214.1 L702.4,83 C702.4,37.3 665.2,0 619.5,0 L238.5,0 L0,198.5 L0,819 C0,864.7 37.2,902 82.9,902 L619.4,902 C665.1,902 702.4,864.8 702.4,819 L702.4,787.9 C686.2,785.7 670.4,782.4 655.1,777.7 Z M178.3,414.1 L117.3,414.1 L117.3,461.3 L178.3,461.3 L178.3,414.1 Z M117.3,705 L178.3,705 L178.3,657.8 L117.3,657.8 L117.3,705 L117.3,705 Z M178.3,536 L117.3,536 L117.3,583.2 L178.3,583.2 L178.3,536 Z M865.2,429.8 L827.7,401.1 L732.5,525.4 L646.8,459.7 L618,497.2 L741.2,591.6 L865.2,429.8 Z M980,501 C980,369.5 873,262.5 741.5,262.5 C610,262.5 503.1,369.5 503.1,501 C503.1,632.5 610.1,739.5 741.6,739.5 C873.1,739.5 980,632.5 980,501 Z M932.8,501 C932.8,606.4 847.1,692.2 741.6,692.2 C636.1,692.2 550.4,606.4 550.4,501 C550.4,395.6 636.1,309.799913 741.6,309.799913 C847.1,309.7 932.8,395.6 932.8,501 Z"></path></g></g></g></svg>