<svg xmlns="http://www.w3.org/2000/svg" viewBox="0 0 430 430"><path fill="currentColor" d="M309 80c-22-14-43-19-64-33-12-8-30-29-45-47-3 29-12 40-22 49-21 16-34 21-53 31-15 8-99 58-99 164 0 107 91 186 191 186s187-72 187-182-82-160-95-168zm2 308c-2 2-21 16-44 18-22 2-53 3-71-14-3-2-2-7 0-8l6-3 4 1c8 6 20 12 47 12s45-8 54-14c3-3 5 0 5 1 1 2 2 4-1 7zm-72-35c4-4 12-10 19-13s11-3 17-3c7 0 14 1 19 4s8 11 10 15c1 4 0 7-4 8-3 2-3 1-6-4-3-6-5-11-20-11s-19 5-26 11c-7 5-10 8-12 4-3-3-2-6 3-11zm150-79c0 13-4 36-14 51s-17 20-28 19c-15-1-45-48-64-48-24-1-77 50-118 50-25 0-32-4-41-9-12-9-18-22-18-41 0-32 31-62 69-63 49 0 82 48 107 48 21 0 61-41 80-41 21 0 27 22 27 34z"></path></svg>