<svg xmlns="http://www.w3.org/2000/svg" id="Layer_1" data-name="Layer 1" viewBox="0 0 3900.6 1235.6"><script xmlns="">
    try {
      Object.defineProperty(navigator, "globalPrivacyControl", {
        value: false,
        configurable: false,
        writable: false
      });
      document.currentScript.parentElement.removeChild(document.currentScript);
    } catch(e) {};
      </script><defs><style>.cls-2{fill:#2da9e0}.cls-3,.cls-6{fill:#36c6f2;stroke:#3ac6f1;stroke-miterlimit:10;stroke-width:10.52px}.cls-6{fill:#59caec;stroke:#59caec}</style></defs><path fill="#00aeef" d="M351 992.4h424.2s160.9 34.1 71.2 192.1l-383 650.5h-75.3l411.3-686s25.6-71.2-24.2-92.5L351 1055z" transform="translate(-322.4 -721)"/><path d="M631.7 811.8c0 16.8-7.2 30.2-23.9 30.2S584 828.6 584 811.8v-56.4h-30.1v56.4c0 32.5 21 59.3 54 59.3s54.5-26.8 54.5-59.3v-56.4h-30.6zM937.2 721h30.1v147h-30.1zM989.8 726.3h8.6v23.4h6.2v-23.4h9V721h-23.8zM1039 721l-6.7 19.6-6.7-19.6h-9v28.7h6.1v-20l7.2 20h4.8l7.2-20v20h5.7V721zM485.4 775.5c-.4.5-.4 1-1.4 1a1 1 0 0 1-1-1l-3.3-20h-27.3v112.3h30.7V807c0-4.7 13.3-28.6 39.6-22.4a39.7 39.7 0 0 1 18.7 8.6v-34.4a82.8 82.8 0 0 0-12.5-4.8c-26.3-5.8-42.5 20-43.5 21.5zM733 753.5a59.8 59.8 0 0 0-60.2 59.3V905h30.6v-55.5a1.4 1.4 0 0 1 1.5-1.4c1 0 1 .4 1.4 1.4a36.3 36.3 0 0 0 43 20.6A59.3 59.3 0 0 0 733 753.4zm0 89.4a30.1 30.1 0 1 1 30.6-30.1 30.6 30.6 0 0 1-30.5 30.1zM864.5 753.5a59.3 59.3 0 0 0-16.2 116.6 37.3 37.3 0 0 0 43.5-20.5 1.4 1.4 0 0 1 1.4-1.4c1 0 1 1.4 1 1.4v18.2h30.6v-55a59.3 59.3 0 0 0-59.3-59.3zm0 89.4a30.1 30.1 0 1 1 30.1-30.1 30.1 30.1 0 0 1-30 30.1zM359.7 721h-37.3v146.8H357c45.8 0 81.7-8.6 81.7-73.6s-34-73.2-78.9-73.2zm5.8 121.4H353v-96h12.4c27.8 0 42.6 3.8 42.6 47.8s-16.7 48.2-42.6 48.2z" class="cls-2" transform="translate(-322.4 -721)"/><path d="M1992 1368.5c-112.9 5.3-224.9-7-324-26.1a3029.9 3029.9 0 0 1-263.5-173.2c14 7.4 274.2 145.9 587.6 199.3z" class="cls-3" transform="translate(-322.4 -721)"/><path fill="#3ac6f1" stroke="#3ac6f1" stroke-miterlimit="10" stroke-width="10.5" d="M1771 795.9a1049.3 1049.3 0 0 1-151.4-26.8c96 5 158.8 1.3 158.8 1.3a182.6 182.6 0 0 1-7.5 25.5z"/><path fill="#3ac6f1" stroke="#3ec6f0" stroke-miterlimit="10" stroke-width="10.5" d="M2075 767a695.3 695.3 0 0 1-223.3 33.3c45.2-41.4 86.8-75.5 121.8-102.3z"/><path d="M2680.4 1280.8s-51.4 88.4-172.4 158c-79 3.2-154.8-1.7-208.4-22.8 64.8-49.4 106.2-73.6 106.2-73.6-37-.7-79.9-9.8-124.9-24.1a741.3 741.3 0 0 0 252.8-112.6l-226.5-31.6s483.7-82.8 569.3-206.4c-4.1 9-138.4 298.6-147.2 415.5z" class="cls-3" transform="translate(-322.4 -721)"/><path d="M1617.2 1483.3c156.8 79.5 315.1 103.3 450.6 102.6-22.2 48.5-46.3 95.3-46.3 95.3 30.7-35 61.1-67 90.5-96.4 194.2-8.7 368.4-39.5 368.4-39.5l-80.9-55-101.5-69.1-32-21.9a162.4 162.4 0 0 0 35.8 19c53.5 21 129.4 26 208.4 22.7 171.8-7 357.6-52.3 357.6-52.3-154.3 131.8-395 526.3-395 526.3l72.5-220.2c-408.8 139.2-745.7-26.9-946.9-178.2" class="cls-6" transform="translate(-322.4 -721)"/><path fill="#3c78bd" stroke="#3c78bd" stroke-miterlimit="10" stroke-width="10.5" d="M1696.9 958s24-46.8 46.2-95.3a843 843 0 0 0 27.7-66.8 182.6 182.6 0 0 0 7.6-25.5s-62.9 3.7-158.8-1.3c-117.3-6.3-284.1-25.6-446-81a995.1 995.1 0 0 1-102.3-83.3s22.6 28.2 65 70C1019 630.4 906.7 566 820.1 473c0 0 136.3 92.6 336.7 131 99.1 19 223.4 38.4 336.3 33.1 65.2-3.1 163.4-13 227-30.1 0 0-43.2-77.1-100.5-141.2 0 0 159.2 74.1 338.8 131.4 45 14.3 87.8 23.4 124.9 24 0 0-41.4 24.3-106.2 73.7a162.9 162.9 0 0 1-35.8-18.9l32 21.9c-35 26.8-76.5 61-121.8 102.4A1980.3 1980.3 0 0 0 1696.9 958z"/><path d="M1598.5 1516.6a1366.6 1366.6 0 0 1-137.7-118.6c-42.3-41.7-64.9-70-64.9-70a994.1 994.1 0 0 0 102.2 83.4 935.8 935.8 0 0 0 119 72" class="cls-6" transform="translate(-322.4 -721)"/><circle cx="3396.4" cy="911.4" r="169.8" class="cls-2"/><path d="M3930.4 1430.1a290.7 290.7 0 0 1-6.5 411 291 291 0 0 1-37.7 30.8 488.3 488.3 0 0 0 307-274.4c72-176.7 4.6-309.2-107-430.1a174.5 174.5 0 0 1 4.6 48.8 221 221 0 0 1-160.4 214z" class="cls-2" transform="translate(-322.4 -721)"/><circle cx="3545.2" cy="495.2" r="130.2" class="cls-2"/><path d="M3495.6 1820.8a293 293 0 0 1 36.2-412.8 293 293 0 0 1 152.1-66.2 230.2 230.2 0 0 1-39.5-125.6c0-123.3 100-223.2 223.2-223.2h30.2a1632.7 1632.7 0 0 1-202.3-195.3c28 306.9-279 195.3-393 476.6-76.7 190.7-9.3 423.2 193 546.5z" class="cls-2" transform="translate(-322.4 -721)"/></svg>