<svg viewBox="0 0 477 391"><g stroke="none" stroke-width="1" fill="none" fill-rule="evenodd"><g id="tools-folder" fill="currentColor" fill-rule="nonzero"><polygon points="398.912 143.565 345.204 197.669 399.542 197.669 399.542 143.525"></polygon><path d="M94.963,197.669 L121.022,197.669 L110.228,171.72 C109.972,171.098 109.864,170.462 109.662,169.84 C105.74,157.766 111.596,144.481 123.506,139.519 L123.56,139.495 L123.482,139.463 C117.419,136.947 112.689,132.228 110.151,126.132 C107.642,120.083 107.627,113.405 110.127,107.302 L122.209,78.014 C126.045,68.781 134.982,62.818 144.982,62.818 C148.212,62.818 151.372,63.448 154.369,64.682 L154.431,64.706 L154.401,64.636 C153.415,62.252 152.949,59.807 152.731,57.361 C147.28,54.402 141.13,52.562 134.491,52.562 L38.443,52.562 C17.214,52.562 0,69.775 0,91.005 L0,110.207 L0,169.84 L0,333.481 L48.576,227.439 C56.861,209.355 75.069,197.669 94.963,197.669 Z"></path><path d="M148.307,79.38 C147.219,78.93 146.093,78.72 144.983,78.72 C141.551,78.72 138.29,80.754 136.892,84.117 L124.825,113.366 C123.947,115.51 123.955,117.909 124.841,120.045 C125.733,122.187 127.435,123.889 129.569,124.773 L146.179,131.614 C145.689,136.801 145.667,142.049 146.179,147.306 L129.617,154.201 C125.176,156.049 123.064,161.166 124.912,165.616 L137.071,194.835 C137.569,196.039 138.523,196.839 139.425,197.669 L152.974,197.669 L165.025,192.653 C166.563,194.493 168.403,195.977 170.08,197.669 L215.721,197.669 L218.851,194.517 C200.441,191.053 184.741,178.707 177.348,160.941 C171.58,147.066 171.556,131.777 177.286,117.886 C183.009,103.995 193.802,93.171 207.678,87.402 C214.581,84.522 221.856,83.062 229.28,83.062 C252.077,83.062 272.467,96.673 281.226,117.73 C282.678,121.209 283.758,124.781 284.486,128.399 L323.637,88.947 L321.509,83.83 C320.111,80.476 316.85,78.449 313.434,78.449 C312.314,78.449 311.189,78.667 310.095,79.117 L293.533,86.004 C290.155,81.936 286.406,78.247 282.39,74.939 L289.239,58.331 C290.123,56.187 290.117,53.788 289.231,51.654 C288.337,49.518 286.645,47.818 284.486,46.925 L255.25,34.873 C254.162,34.423 253.029,34.213 251.919,34.213 C248.487,34.213 245.234,36.247 243.852,39.609 L236.995,56.235 C234.371,55.993 231.731,55.861 229.084,55.861 C226.498,55.861 223.897,55.985 221.287,56.241 L214.4,39.679 C213.002,36.325 209.757,34.299 206.349,34.299 C205.231,34.299 204.097,34.515 203.002,34.973 L173.79,47.118 C169.349,48.974 167.237,54.083 169.085,58.533 L175.98,75.095 C171.896,78.465 168.207,82.208 164.899,86.23 L148.307,79.38 Z"></path><path d="M229.277,98.964 C223.958,98.964 218.748,100.012 213.779,102.078 C203.832,106.216 196.091,113.989 191.983,123.951 C187.876,133.912 187.89,144.885 192.029,154.838 C198.924,171.416 216.704,181.037 234.106,179.143 L269.226,143.767 C269.978,137.058 269.21,130.241 266.546,123.834 C260.258,108.731 245.629,98.964 229.277,98.964 Z"></path><path d="M459.26,52.227 L434.087,77.578 C429.66,82.035 422.478,82.051 418.021,77.626 C387.203,47.056 387.73,54.907 424.566,17.791 C434.025,8.27 406.14,-8.47 386.31,5.678 C348.448,32.621 351.686,36.961 349.248,85.717 L238.128,197.669 L322.794,197.669 L391.916,128.035 L422.26,126.295 C438.194,125.387 452.852,117.234 462.023,104.15 L471.674,90.392 C485.544,70.591 468.858,42.569 459.26,52.227 Z"></path><path fill="none" stroke="currentColor" stroke-width="40" d="M434.739,221.522 L94.963,221.522 C84.332,221.522 74.689,227.717 70.264,237.378 L10.257,368.361 C8.013,373.253 8.417,378.952 11.321,383.479 C14.233,388.005 19.242,390.746 24.63,390.746 L389.394,390.746 C395.583,390.746 401.197,387.143 403.766,381.521 L459.439,260.003 C463.291,251.594 462.599,241.803 457.599,234.014 C452.605,226.227 443.987,221.522 434.739,221.522 Z"></path></g></g></svg>