<svg viewBox="0 0 64 42.4" xmlns="http://www.w3.org/2000/svg"><g fill="currentColor" stroke="currentColor" stroke-width="2"><path d="m63 42.4h-62a.9.9 0 0 1 -1-1v-40.4a.9.9 0 0 1 1-1h62a.9.9 0 0 1 1 1v40.3a1 1 0 0 1 -1 1.1zm-61-2h60v-38.4h-60z"></path><path d="m63 42.4h-62a1 1 0 0 1 -.9-.7 1.1 1.1 0 0 1 .3-1.1l26.3-20.2a.9.9 0 0 1 1.2 0l4.1 3.1 4.1-3.1a.9.9 0 0 1 1.2 0l26.3 20.2a.9.9 0 0 1 .3 1.1 1 1 0 0 1 -.9.7zm-59.1-2h56.1l-23.3-17.9-4.1 3.1a.9.9 0 0 1 -1.2 0l-4.1-3.1z"></path><path d="m32 25.8-.6-.2-31-23.8a.9.9 0 0 1 -.3-1.1 1 1 0 0 1 .9-.7h62a1 1 0 0 1 .9.7 1.1 1.1 0 0 1 -.3 1.1l-31 23.8zm-28.1-23.8 28.1 21.5 28.1-21.5z"></path></g></svg>