<svg xmlns="http://www.w3.org/2000/svg" viewBox="0 0 193.5 188"><script xmlns="">
    try {
      Object.defineProperty(navigator, "globalPrivacyControl", {
        value: false,
        configurable: false,
        writable: false
      });
      document.currentScript.parentElement.removeChild(document.currentScript);
    } catch(e) {};
      </script><g fill="none" stroke="#31b2e6" stroke-miterlimit="10" stroke-width="9"><path d="m96.7 23-.2 35.4-30.6 17.5-30.5-17.9.1-35.3 30.7-17.5z"/><path d="m157.9 23.4-.2 35.3-30.6 17.5-30.5-17.8.2-35.3 30.6-17.5z"/><path d="m127.1 76.2-.2 35.3-30.7 17.5-30.5-17.8.2-35.3 30.7-17.5z"/><path d="m188.9 76.9-.1 35.3-30.7 17.5-30.5-17.8.2-35.3 30.6-17.5z"/><path d="m158.1 129.7-.2 35.4-30.7 17.5-30.5-17.9.2-35.3 30.7-17.5z"/><path d="m96.9 130-.2 35.3-30.7 17.5-30.4-17.8.1-35.3 30.7-17.5z"/><path d="m65.9 76.4-.2 35.4-30.7 17.5-30.5-17.9.2-35.3 30.7-17.5z"/><path d="m4.7 76.1 30.5 17.3"/><path d="m65.9 76.4-30.7 17"/><path d="m35.7 129.7-.5-36.3"/><path d="m35.5 22.7 30.5 17.3"/><path d="m96.7 23-30.7 17"/><path d="m66.6 76.3-.6-36.3"/><path d="m96.8 23.1 30.4 17.2"/><path d="m157.9 23.4-30.7 16.9"/><path d="m127.8 76.6-.6-36.3"/><path d="m65.9 75.9 30.5 17.2"/><path d="m127.1 76.2-30.7 16.9"/><path d="m96.9 129.4-.5-36.3"/><path d="m127.8 76.6 30.4 17.2"/><path d="m188.9 76.9-30.7 16.9"/><path d="m158.8 130.2-.6-36.4"/><path d="m96.5 130.1 30.5 17.2"/><path d="m157.7 130.4-30.7 16.9"/><path d="m127.5 183.6-.5-36.3"/><path d="m35.7 129.7 30.5 17.2"/><path d="m96.9 130-30.7 16.9"/><path d="m66.7 183.2-.5-36.3"/></g></svg>