<svg viewBox="0 0 416 352" xmlns="http://www.w3.org/2000/svg"><g fill="currentColor"><path d="M256 128h-12c-4.4 0-8 3.6-8 8s3.6 8 8 8h12c4.4 0 8-3.6 8-8s-3.6-8-8-8zm-48 0h-60c-4.4 0-8 3.6-8 8s3.6 8 8 8h60c4.4 0 8-3.6 8-8s-3.6-8-8-8zm128-48H148c-4.4 0-8 3.6-8 8s3.6 8 8 8h188c4.4 0 8-3.6 8-8s-3.6-8-8-8z"></path><path d="M376 0H104C82 0 64 18 64 40v88H24c-13.2 0-24 10.8-24 24v128c0 13.2 10.8 24 24 24h40v40c0 3.2 2 6 4.8 7.2 1.2.4 2 .8 3.2.8 2 0 4-.8 5.2-2l49.6-44 .4-.4c1.2-1.2 2.8-1.6 5.2-1.6h52c13.2 0 24-10.8 24-24v-56h7.2c6 0 11.6 2 16 6.4l74.8 69.2c1.6 1.2 3.6 2 5.6 2 1.2 0 2-.4 3.2-.8 2.8-1.2 4.8-4 4.8-7.2V224h56c22 0 40-18 40-40V40c0-22-18-40-40-40zM192.4 280c0 4.4-3.6 8-8 8h-52c-6.4 0-12 2-16.4 6l-36 32v-30c0-4.4-3.6-8-8-8H24c-4.4 0-8-3.6-8-8V152c0-4.4 3.6-8 8-8h40v40c0 22 18 40 40 40h88.4v56zM400 184c0 13.2-10.8 24-24 24h-56v-24c0-4.4-3.6-8-8-8s-8 3.6-8 8v91.2l-61.2-56.8c-7.2-6.8-16.8-10.4-27.2-10.4H104c-13.2 0-24-10.8-24-24V40c0-13.2 10.8-24 24-24h272c13.2 0 24 10.8 24 24v144z"></path></g></svg>